<svg fill="#000000" xmlns="http://www.w3.org/2000/svg" viewBox="0 0 50 50" width="50px" height="50px"><path fill="none" stroke="#000000" stroke-linejoin="round" stroke-miterlimit="10" stroke-width="2" d="M43,5	c-4.661,4.672-9.323,9.344-13.984,14.016l2.4,2.4C35.944,16.944,40.472,12.472,45,8"/><path d="M28.062,26.447l-4.384-4.384l1.485-1.485l4.384,4.384L28.062,26.447z"/><path d="M25.352,29.045l-1.485,1.485l-4.384-4.384l1.485-1.485L25.352,29.045z"/><path fill="none" stroke="#000000" stroke-miterlimit="10" stroke-width="2" d="M41,45H9c-2.209,0-4-1.791-4-4V9	c0-2.209,1.791-4,4-4h32c2.209,0,4,1.791,4,4v32C45,43.209,43.209,45,41,45z"/><path fill="none" stroke="#000000" stroke-linecap="round" stroke-linejoin="round" stroke-miterlimit="10" stroke-width="2" d="M14.916,34.516c5.2,5.2,11.1,4.8,15,0.9c2.3-2.3,2.3-4.4,2.6-6.6c0.5-4.1,6.5-2.3,6.5-6.8c0-1.9-4.6,1.2-5.6-2.6"/><path fill="none" stroke="#000000" stroke-linecap="round" stroke-linejoin="round" stroke-miterlimit="10" stroke-width="2" d="M30.895,16.895c-3.8-1-0.7-5.6-2.6-5.6c-4.5,0-2.7,6-6.8,6.5c-2.2,0.3-4.3,0.3-6.6,2.6c-3.9,3.9-4.3,9.8,0.9,15"/></svg>